<svg xmlns="http://www.w3.org/2000/svg" viewBox="0 0 400 500"><defs>
  <linearGradient id="bg" x1="0" y1="0" x2="0" y2="1"><stop offset="0" stop-color="#FCFAF4"/><stop offset="0.72" stop-color="#F3EDE0"/><stop offset="1" stop-color="#E2D8C3"/></linearGradient>
  <radialGradient id="vig" cx="0.5" cy="0.42" r="0.8"><stop offset="0.6" stop-color="#000" stop-opacity="0"/><stop offset="1" stop-color="#4A3A1E" stop-opacity="0.1"/></radialGradient>
  <linearGradient id="sv" x1="0" y1="0" x2="1" y2="0"><stop offset="0" stop-color="#8E9CAC"/><stop offset="0.18" stop-color="#F2F6FA"/><stop offset="0.36" stop-color="#FFFFFF"/><stop offset="0.6" stop-color="#B4BFCC"/><stop offset="0.84" stop-color="#6E7D8E"/><stop offset="1" stop-color="#9FABB9"/></linearGradient>
  <linearGradient id="gd" x1="0" y1="0" x2="1" y2="0"><stop offset="0" stop-color="#B58A2C"/><stop offset="0.3" stop-color="#F2DE9E"/><stop offset="0.55" stop-color="#D4AF37"/><stop offset="1" stop-color="#8F6B1B"/></linearGradient>
  <filter id="soft" x="-60%" y="-60%" width="220%" height="220%"><feGaussianBlur stdDeviation="7"/></filter><radialGradient id="bk" cx="0.38" cy="0.28" r="0.95"><stop offset="0" stop-color="#EFEADE"/><stop offset="0.55" stop-color="#DDD2B8"/><stop offset="1" stop-color="#C6B892"/></radialGradient></defs><rect width="400" height="500" fill="url(#bg)"/><rect width="400" height="500" fill="url(#vig)"/><ellipse cx="200" cy="351" rx="105.4" ry="15" fill="#3A3020" opacity="0.22" filter="url(#soft)"/>
     <rect x="281" y="163" width="20" height="174" rx="3" fill="#F2DE9E"/>
     <g stroke="#8F6B1B" stroke-width="0.7" opacity="0.5"><line x1="287" y1="167" x2="287" y2="333"/><line x1="292" y1="167" x2="292" y2="333"/><line x1="297" y1="167" x2="297" y2="333"/></g>
     <rect x="115" y="155" width="170" height="190" rx="10" fill="url(#bk)"/>
     <rect x="125" y="167" width="150" height="166" rx="6" fill="none" stroke="url(#gd)" stroke-width="2.4"/>
     <text x="192" y="258" text-anchor="middle" font-family="'Frank Ruhl Libre','Times New Roman',serif" font-size="30" font-weight="700" fill="url(#gd)">ברכון</text>
     <g stroke="url(#gd)" stroke-width="1.6" fill="none" opacity="0.8"><path d="M139 195 q65 -18 126 0"/></g>
     
     <ellipse cx="155" cy="215" rx="34" ry="18" fill="#FFFFFF" opacity="0.08" filter="url(#soft)"/></svg>
