<svg xmlns="http://www.w3.org/2000/svg" viewBox="0 0 400 500"><defs>
  <linearGradient id="bg" x1="0" y1="0" x2="0" y2="1">
    <stop offset="0" stop-color="#FCFAF4"/><stop offset="0.72" stop-color="#F3EDE0"/><stop offset="1" stop-color="#E2D8C3"/>
  </linearGradient>
  <radialGradient id="vig" cx="0.5" cy="0.42" r="0.8">
    <stop offset="0.6" stop-color="#000" stop-opacity="0"/><stop offset="1" stop-color="#4A3A1E" stop-opacity="0.1"/>
  </radialGradient>
  <linearGradient id="sv" x1="0" y1="0" x2="1" y2="0">
    <stop offset="0" stop-color="#8E9CAC"/><stop offset="0.18" stop-color="#F2F6FA"/><stop offset="0.36" stop-color="#FFFFFF"/>
    <stop offset="0.6" stop-color="#B4BFCC"/><stop offset="0.84" stop-color="#6E7D8E"/><stop offset="1" stop-color="#9FABB9"/>
  </linearGradient>
  <linearGradient id="gd" x1="0" y1="0" x2="1" y2="0">
    <stop offset="0" stop-color="#B58A2C"/><stop offset="0.3" stop-color="#F2DE9E"/><stop offset="0.55" stop-color="#D4AF37"/><stop offset="1" stop-color="#8F6B1B"/>
  </linearGradient>
  <filter id="soft" x="-60%" y="-60%" width="220%" height="220%"><feGaussianBlur stdDeviation="7"/></filter><linearGradient id="cr" x1="0" y1="0" x2="1" y2="1"><stop offset="0" stop-color="#FFFFFF"/><stop offset="0.4" stop-color="#DCE8F2"/><stop offset="0.7" stop-color="#B9D0E4"/><stop offset="1" stop-color="#8FB0CC"/></linearGradient></defs>
<rect width="400" height="500" fill="url(#bg)"/><rect width="400" height="500" fill="url(#vig)"/><ellipse cx="200" cy="420" rx="150" ry="15" fill="#3A3020" opacity="0.22" filter="url(#soft)"/><g transform="translate(138 0)">
      <path d="M0 106 C-8 122 -6 136 0 142 C6 136 8 122 0 106 Z" fill="#F8C144"/><rect x="-7" y="146" width="14" height="60" rx="3" fill="#FBF7EC"/>
      <path d="M-16 206 L16 206 L10 232 L-10 232 Z" fill="url(#cr)" opacity="0.92"/>
      <path d="M-8 232 L8 232 L14 268 L-14 268 L-8 232 M-14 268 L-20 320 L20 320 L14 268" fill="url(#cr)" opacity="0.92"/>
      <path d="M-20 320 L20 320 L30 388 L-30 388 Z" fill="url(#cr)" opacity="0.92"/>
      <g stroke="#FFFFFF" stroke-width="2" opacity="0.8"><path d="M-8 240 L-14 316"/><path d="M8 240 L14 316"/><path d="M0 236 L0 318"/></g>
      <g stroke="#7FA0BE" stroke-width="1.4" opacity="0.6"><path d="M-16 330 L-24 382"/><path d="M16 330 L24 382"/></g>
      <ellipse cx="0" cy="390" rx="34" ry="8" fill="url(#cr)"/>
     </g><g transform="translate(262 0)">
      <path d="M0 106 C-8 122 -6 136 0 142 C6 136 8 122 0 106 Z" fill="#F8C144"/><rect x="-7" y="146" width="14" height="60" rx="3" fill="#FBF7EC"/>
      <path d="M-16 206 L16 206 L10 232 L-10 232 Z" fill="url(#cr)" opacity="0.92"/>
      <path d="M-8 232 L8 232 L14 268 L-14 268 L-8 232 M-14 268 L-20 320 L20 320 L14 268" fill="url(#cr)" opacity="0.92"/>
      <path d="M-20 320 L20 320 L30 388 L-30 388 Z" fill="url(#cr)" opacity="0.92"/>
      <g stroke="#FFFFFF" stroke-width="2" opacity="0.8"><path d="M-8 240 L-14 316"/><path d="M8 240 L14 316"/><path d="M0 236 L0 318"/></g>
      <g stroke="#7FA0BE" stroke-width="1.4" opacity="0.6"><path d="M-16 330 L-24 382"/><path d="M16 330 L24 382"/></g>
      <ellipse cx="0" cy="390" rx="34" ry="8" fill="url(#cr)"/>
     </g></svg>
