<svg xmlns="http://www.w3.org/2000/svg" viewBox="0 0 400 500"><defs>
  <linearGradient id="bg" x1="0" y1="0" x2="0" y2="1"><stop offset="0" stop-color="#FCFAF4"/><stop offset="0.72" stop-color="#F3EDE0"/><stop offset="1" stop-color="#E2D8C3"/></linearGradient>
  <radialGradient id="vig" cx="0.5" cy="0.42" r="0.8"><stop offset="0.6" stop-color="#000" stop-opacity="0"/><stop offset="1" stop-color="#4A3A1E" stop-opacity="0.1"/></radialGradient>
  <linearGradient id="sv" x1="0" y1="0" x2="1" y2="0"><stop offset="0" stop-color="#8E9CAC"/><stop offset="0.18" stop-color="#F2F6FA"/><stop offset="0.36" stop-color="#FFFFFF"/><stop offset="0.6" stop-color="#B4BFCC"/><stop offset="0.84" stop-color="#6E7D8E"/><stop offset="1" stop-color="#9FABB9"/></linearGradient>
  <linearGradient id="gd" x1="0" y1="0" x2="1" y2="0"><stop offset="0" stop-color="#B58A2C"/><stop offset="0.3" stop-color="#F2DE9E"/><stop offset="0.55" stop-color="#D4AF37"/><stop offset="1" stop-color="#8F6B1B"/></linearGradient>
  <filter id="soft" x="-60%" y="-60%" width="220%" height="220%"><feGaussianBlur stdDeviation="7"/></filter></defs><rect width="400" height="500" fill="url(#bg)"/><rect width="400" height="500" fill="url(#vig)"/><ellipse cx="200" cy="428" rx="130" ry="15" fill="#3A3020" opacity="0.22" filter="url(#soft)"/>
     <ellipse cx="200" cy="392" rx="118" ry="20" fill="url(#sv)"/>
     <rect x="110" y="250" width="180" height="132" rx="16" fill="url(#sv)"/>
     <rect x="110" y="250" width="180" height="24" rx="10" fill="#E3EAF1"/>
     <path d="M102 250 C102 214 150 196 200 196 C250 196 298 214 298 250 Z" fill="url(#sv)"/>
     <path d="M102 250 C102 218 150 202 200 202 C250 202 298 218 298 250" fill="none" stroke="url(#gd)" stroke-width="3"/>
     <g stroke="url(#gd)" stroke-width="2" fill="none" opacity="0.85"><path d="M130 300 q70 -18 140 0"/><path d="M130 340 q70 18 140 0"/></g>
     <text x="200" y="332" text-anchor="middle" font-family="'Frank Ruhl Libre','Times New Roman',serif" font-size="26" font-weight="700" fill="url(#gd)">אתרוג</text>
     <circle cx="200" cy="188" r="9" fill="url(#gd)"/>
     <ellipse cx="150" cy="290" rx="20" ry="40" fill="#FFFFFF" opacity="0.1" filter="url(#soft)"/></svg>
