<svg xmlns="http://www.w3.org/2000/svg" viewBox="0 0 400 500"><defs>
  <linearGradient id="bg" x1="0" y1="0" x2="0" y2="1"><stop offset="0" stop-color="#FCFAF4"/><stop offset="0.72" stop-color="#F3EDE0"/><stop offset="1" stop-color="#E2D8C3"/></linearGradient>
  <radialGradient id="vig" cx="0.5" cy="0.42" r="0.8"><stop offset="0.6" stop-color="#000" stop-opacity="0"/><stop offset="1" stop-color="#4A3A1E" stop-opacity="0.1"/></radialGradient>
  <linearGradient id="sv" x1="0" y1="0" x2="1" y2="0"><stop offset="0" stop-color="#8E9CAC"/><stop offset="0.18" stop-color="#F2F6FA"/><stop offset="0.36" stop-color="#FFFFFF"/><stop offset="0.6" stop-color="#B4BFCC"/><stop offset="0.84" stop-color="#6E7D8E"/><stop offset="1" stop-color="#9FABB9"/></linearGradient>
  <linearGradient id="gd" x1="0" y1="0" x2="1" y2="0"><stop offset="0" stop-color="#B58A2C"/><stop offset="0.3" stop-color="#F2DE9E"/><stop offset="0.55" stop-color="#D4AF37"/><stop offset="1" stop-color="#8F6B1B"/></linearGradient>
  <filter id="soft" x="-60%" y="-60%" width="220%" height="220%"><feGaussianBlur stdDeviation="7"/></filter><linearGradient id="kl" x1="0" y1="0" x2="0" y2="1"><stop offset="0" stop-color="#FBF3DD"/><stop offset="1" stop-color="#E4D5AE"/></linearGradient></defs><rect width="400" height="500" fill="url(#bg)"/><rect width="400" height="500" fill="url(#vig)"/><ellipse cx="200" cy="430" rx="130" ry="15" fill="#3A3020" opacity="0.22" filter="url(#soft)"/>
     <ellipse cx="200" cy="398" rx="118" ry="18" fill="url(#sv)"/>
     <rect x="118" y="250" width="164" height="140" rx="12" fill="url(#sv)"/>
     <rect x="130" y="264" width="140" height="112" rx="7" fill="none" stroke="url(#gd)" stroke-width="2"/>
     <text x="200" y="338" text-anchor="middle" font-family="'Frank Ruhl Libre','Times New Roman',serif" font-size="26" font-weight="700" fill="url(#gd)">מגילה</text>
     <g transform="translate(200 180)">
       <rect x="-60" y="-20" width="120" height="40" rx="19" fill="url(#kl)"/>
       <g stroke="#B9A67E" stroke-width="1.4" opacity="0.8"><path d="M-50 -8 h100"/><path d="M-50 0 h88"/><path d="M-50 8 h96"/></g>
       <ellipse cx="-60" cy="0" rx="9" ry="20" fill="#D9C79A"/><ellipse cx="60" cy="0" rx="9" ry="20" fill="#D9C79A"/>
       <rect x="-64" y="-30" width="8" height="60" rx="4" fill="url(#gd)"/><rect x="56" y="-30" width="8" height="60" rx="4" fill="url(#gd)"/>
     </g></svg>
