<svg xmlns="http://www.w3.org/2000/svg" viewBox="0 0 400 500">
  <defs>
    <linearGradient id="bg" x1="0" y1="0" x2="0" y2="1">
      <stop offset="0" stop-color="#FCFAF4"/><stop offset="0.72" stop-color="#F3EDE0"/><stop offset="1" stop-color="#E2D8C3"/>
    </linearGradient>
    <radialGradient id="vig" cx="0.5" cy="0.42" r="0.8">
      <stop offset="0.6" stop-color="#000000" stop-opacity="0"/><stop offset="1" stop-color="#4A3A1E" stop-opacity="0.1"/>
    </radialGradient>
    <linearGradient id="sv" x1="0" y1="0" x2="1" y2="0">
      <stop offset="0" stop-color="#8E9CAC"/><stop offset="0.18" stop-color="#F2F6FA"/><stop offset="0.36" stop-color="#FFFFFF"/>
      <stop offset="0.6" stop-color="#B4BFCC"/><stop offset="0.84" stop-color="#6E7D8E"/><stop offset="1" stop-color="#9FABB9"/>
    </linearGradient>
    <linearGradient id="gd" x1="0" y1="0" x2="1" y2="0">
      <stop offset="0" stop-color="#B58A2C"/><stop offset="0.3" stop-color="#F2DE9E"/><stop offset="0.55" stop-color="#D4AF37"/><stop offset="1" stop-color="#8F6B1B"/>
    </linearGradient>
    <filter id="soft" x="-60%" y="-60%" width="220%" height="220%"><feGaussianBlur stdDeviation="7"/></filter>
  </defs>
  <rect width="400" height="500" fill="url(#bg)"/>
  <rect width="400" height="500" fill="url(#vig)"/>
  <ellipse cx="200" cy="425" rx="130" ry="15" fill="#3A3020" opacity="0.24" filter="url(#soft)"/>

  <!-- ידיות -->
  <path d="M148 236 C92 236 92 322 148 322" stroke="url(#sv)" stroke-width="17" fill="none" stroke-linecap="round"/>
  <path d="M252 236 C308 236 308 322 252 322" stroke="url(#sv)" stroke-width="17" fill="none" stroke-linecap="round"/>
  <path d="M148 240 C100 240 100 318 148 318" stroke="#FFFFFF" stroke-width="3" fill="none" opacity="0.5" stroke-linecap="round"/>

  <!-- גוף -->
  <path d="M144 186 L144 378 Q144 402 200 402 Q256 402 256 378 L256 186 Z" fill="url(#sv)"/>
  <!-- חיטוב אנכי -->
  <g stroke="#7C8B9C" stroke-width="2.4" opacity="0.5">
    <path d="M162 210 L162 390"/><path d="M181 214 L181 396"/><path d="M200 216 L200 398"/>
    <path d="M219 214 L219 396"/><path d="M238 210 L238 390"/>
  </g>
  <g stroke="#FFFFFF" stroke-width="1.6" opacity="0.6">
    <path d="M166 212 L166 390"/><path d="M204 217 L204 397"/>
  </g>
  <!-- פתח -->
  <ellipse cx="200" cy="186" rx="56" ry="13" fill="url(#sv)"/>
  <ellipse cx="200" cy="187" rx="47" ry="9.5" fill="#5F6E80"/>
  <ellipse cx="200" cy="188.5" rx="38" ry="6.5" fill="#46525F"/>
  <!-- חגורת זהב לחריטה -->
  <path d="M144 226 Q200 240 256 226 L256 246 Q200 260 144 246 Z" fill="url(#gd)"/>
  <g fill="#8F6B1B" opacity="0.55">
    <circle cx="168" cy="240" r="2"/><circle cx="184" cy="243" r="2"/><circle cx="200" cy="244" r="2"/>
    <circle cx="216" cy="243" r="2"/><circle cx="232" cy="240" r="2"/>
  </g>
  <!-- ספקולר חזק -->
  <path d="M158 260 L158 380" stroke="#FFFFFF" stroke-width="7" opacity="0.55" stroke-linecap="round"/>
  <ellipse cx="200" cy="440" rx="70" ry="6" fill="#8E9CAC" opacity="0.13"/>
</svg>
