<svg xmlns="http://www.w3.org/2000/svg" viewBox="0 0 400 500"><defs>
  <linearGradient id="bg" x1="0" y1="0" x2="0" y2="1"><stop offset="0" stop-color="#FCFAF4"/><stop offset="0.72" stop-color="#F3EDE0"/><stop offset="1" stop-color="#E2D8C3"/></linearGradient>
  <radialGradient id="vig" cx="0.5" cy="0.42" r="0.8"><stop offset="0.6" stop-color="#000" stop-opacity="0"/><stop offset="1" stop-color="#4A3A1E" stop-opacity="0.1"/></radialGradient>
  <linearGradient id="sv" x1="0" y1="0" x2="1" y2="0"><stop offset="0" stop-color="#8E9CAC"/><stop offset="0.18" stop-color="#F2F6FA"/><stop offset="0.36" stop-color="#FFFFFF"/><stop offset="0.6" stop-color="#B4BFCC"/><stop offset="0.84" stop-color="#6E7D8E"/><stop offset="1" stop-color="#9FABB9"/></linearGradient>
  <linearGradient id="steel" x1="0" y1="0" x2="1" y2="0"><stop offset="0" stop-color="#9AA6B2"/><stop offset="0.3" stop-color="#E7ECF1"/><stop offset="0.55" stop-color="#C2CBD5"/><stop offset="1" stop-color="#7E8A97"/></linearGradient>
  <linearGradient id="gd" x1="0" y1="0" x2="1" y2="0"><stop offset="0" stop-color="#B58A2C"/><stop offset="0.3" stop-color="#F2DE9E"/><stop offset="0.55" stop-color="#D4AF37"/><stop offset="1" stop-color="#8F6B1B"/></linearGradient>
  <filter id="soft" x="-60%" y="-60%" width="220%" height="220%"><feGaussianBlur stdDeviation="7"/></filter><radialGradient id="pom" cx="0.4" cy="0.3" r="1"><stop offset="0" stop-color="#C0453E"/><stop offset="0.55" stop-color="#9E2E2A"/><stop offset="1" stop-color="#6E1A18"/></radialGradient></defs><rect width="400" height="500" fill="url(#bg)"/><rect width="400" height="500" fill="url(#vig)"/><ellipse cx="200" cy="430" rx="90" ry="15" fill="#3A3020" opacity="0.22" filter="url(#soft)"/>
     <circle cx="200" cy="290" r="88" fill="url(#pom)"/>
     <g stroke="#5A1210" stroke-width="2" opacity="0.35" fill="none"><path d="M150 244 C138 284 138 320 150 356"/><path d="M200 228 C194 284 194 320 200 360"/><path d="M250 244 C262 284 262 320 250 356"/></g>
     <path d="M178 208 L184 182 L192 200 L200 176 L208 200 L216 182 L222 208 Z" fill="url(#gd)"/>
     <g stroke="url(#gd)" stroke-width="1.5" fill="none" opacity="0.9"><path d="M150 300 q50 16 100 0"/></g>
     <ellipse cx="170" cy="258" rx="20" ry="30" fill="#FFFFFF" opacity="0.14"/></svg>
