<svg xmlns="http://www.w3.org/2000/svg" viewBox="0 0 400 500"><defs>
  <linearGradient id="bg" x1="0" y1="0" x2="0" y2="1"><stop offset="0" stop-color="#FCFAF4"/><stop offset="0.72" stop-color="#F3EDE0"/><stop offset="1" stop-color="#E2D8C3"/></linearGradient>
  <radialGradient id="vig" cx="0.5" cy="0.42" r="0.8"><stop offset="0.6" stop-color="#000" stop-opacity="0"/><stop offset="1" stop-color="#4A3A1E" stop-opacity="0.1"/></radialGradient>
  <linearGradient id="sv" x1="0" y1="0" x2="1" y2="0"><stop offset="0" stop-color="#8E9CAC"/><stop offset="0.18" stop-color="#F2F6FA"/><stop offset="0.36" stop-color="#FFFFFF"/><stop offset="0.6" stop-color="#B4BFCC"/><stop offset="0.84" stop-color="#6E7D8E"/><stop offset="1" stop-color="#9FABB9"/></linearGradient>
  <linearGradient id="steel" x1="0" y1="0" x2="1" y2="0"><stop offset="0" stop-color="#9AA6B2"/><stop offset="0.3" stop-color="#E7ECF1"/><stop offset="0.55" stop-color="#C2CBD5"/><stop offset="1" stop-color="#7E8A97"/></linearGradient>
  <linearGradient id="gd" x1="0" y1="0" x2="1" y2="0"><stop offset="0" stop-color="#B58A2C"/><stop offset="0.3" stop-color="#F2DE9E"/><stop offset="0.55" stop-color="#D4AF37"/><stop offset="1" stop-color="#8F6B1B"/></linearGradient>
  <filter id="soft" x="-60%" y="-60%" width="220%" height="220%"><feGaussianBlur stdDeviation="7"/></filter><radialGradient id="shade" cx="0.5" cy="0.2" r="1"><stop offset="0" stop-color="#F6E9C8"/><stop offset="0.6" stop-color="#E8CE84"/><stop offset="1" stop-color="#C9A94E"/></radialGradient></defs><rect width="400" height="500" fill="url(#bg)"/><rect width="400" height="500" fill="url(#vig)"/><ellipse cx="200" cy="430" rx="90" ry="15" fill="#3A3020" opacity="0.22" filter="url(#soft)"/>
     <rect x="196" y="90" width="8" height="120" fill="#8892A0"/>
     <path d="M120 210 L280 210 L250 300 L150 300 Z" fill="url(#shade)"/>
     <path d="M120 210 L280 210 L278 220 L122 220 Z" fill="#FFFFFF" opacity="0.4"/>
     <ellipse cx="200" cy="300" rx="50" ry="10" fill="#C9A94E"/>
     <circle cx="200" cy="255" r="34" fill="#FFF6D8" opacity="0.5" filter="url(#soft)"/>
     <rect x="188" y="300" width="24" height="70" fill="#8892A0"/>
     <path d="M160 372 L240 372 L252 396 L148 396 Z" fill="url(#sv)"/>
     <ellipse cx="200" cy="396" rx="56" ry="10" fill="url(#sv)"/>
     <!-- שרשרת משיכה -->
     <path d="M260 220 L260 270" stroke="#8892A0" stroke-width="2" stroke-dasharray="2 3"/><circle cx="260" cy="274" r="4" fill="url(#gd)"/></svg>
