<svg xmlns="http://www.w3.org/2000/svg" viewBox="0 0 400 500"><defs>
  <linearGradient id="bg" x1="0" y1="0" x2="0" y2="1">
    <stop offset="0" stop-color="#FCFAF4"/><stop offset="0.72" stop-color="#F3EDE0"/><stop offset="1" stop-color="#E2D8C3"/>
  </linearGradient>
  <radialGradient id="vig" cx="0.5" cy="0.42" r="0.8">
    <stop offset="0.6" stop-color="#000" stop-opacity="0"/><stop offset="1" stop-color="#4A3A1E" stop-opacity="0.1"/>
  </radialGradient>
  <linearGradient id="sv" x1="0" y1="0" x2="1" y2="0">
    <stop offset="0" stop-color="#8E9CAC"/><stop offset="0.18" stop-color="#F2F6FA"/><stop offset="0.36" stop-color="#FFFFFF"/>
    <stop offset="0.6" stop-color="#B4BFCC"/><stop offset="0.84" stop-color="#6E7D8E"/><stop offset="1" stop-color="#9FABB9"/>
  </linearGradient>
  <linearGradient id="gd" x1="0" y1="0" x2="1" y2="0">
    <stop offset="0" stop-color="#B58A2C"/><stop offset="0.3" stop-color="#F2DE9E"/><stop offset="0.55" stop-color="#D4AF37"/><stop offset="1" stop-color="#8F6B1B"/>
  </linearGradient>
  <filter id="soft" x="-60%" y="-60%" width="220%" height="220%"><feGaussianBlur stdDeviation="7"/></filter></defs>
<rect width="400" height="500" fill="url(#bg)"/><rect width="400" height="500" fill="url(#vig)"/><ellipse cx="200" cy="412" rx="160" ry="15" fill="#3A3020" opacity="0.22" filter="url(#soft)"/>
     <rect x="84" y="298" width="232" height="70" rx="12" fill="#E4DECC"/>
     <rect x="84" y="330" width="232" height="10" fill="#C6B173" opacity="0.9"/>
     <rect x="72" y="234" width="256" height="76" rx="12" fill="#EFEBDD"/>
     <rect x="72" y="266" width="256" height="12" fill="#C6B173"/>
     <rect x="72" y="284" width="256" height="5" fill="#8F6B1B" opacity="0.8"/>
     <rect x="62" y="148" width="276" height="118" rx="14" fill="#FBF9F2"/>
     <rect x="62" y="196" width="276" height="14" fill="#C6B173"/>
     <rect x="62" y="216" width="276" height="6" fill="#8F6B1B"/>
     <rect x="110" y="158" width="180" height="24" rx="7" fill="url(#gd)" stroke="#8794A4" stroke-width="0.8"/>
     <g fill="#7C8B9C" opacity="0.75"><rect x="132" y="165" width="9" height="9" rx="1.5" transform="rotate(45 136.5 169.5)"/><rect x="168" y="165" width="9" height="9" rx="1.5" transform="rotate(45 172.5 169.5)"/><rect x="204" y="165" width="9" height="9" rx="1.5" transform="rotate(45 208.5 169.5)"/><rect x="240" y="165" width="9" height="9" rx="1.5" transform="rotate(45 244.5 169.5)"/></g>
     <g stroke="#EFEAD9" stroke-width="3.2" fill="none" stroke-linecap="round">
       <path d="M96 368 C94 386 98 400 95 416"/><path d="M105 368 C107 388 102 402 107 418"/>
       <path d="M295 368 C293 386 297 400 294 416"/><path d="M304 368 C306 388 301 402 306 418"/>
     </g>
     <ellipse cx="100" cy="378" rx="6.5" ry="4.2" fill="#DDD6C0"/><ellipse cx="300" cy="378" rx="6.5" ry="4.2" fill="#DDD6C0"/></svg>
