<svg xmlns="http://www.w3.org/2000/svg" viewBox="0 0 400 500"><defs>
  <linearGradient id="bg" x1="0" y1="0" x2="0" y2="1"><stop offset="0" stop-color="#FCFAF4"/><stop offset="0.72" stop-color="#F3EDE0"/><stop offset="1" stop-color="#E2D8C3"/></linearGradient>
  <radialGradient id="vig" cx="0.5" cy="0.42" r="0.8"><stop offset="0.6" stop-color="#000" stop-opacity="0"/><stop offset="1" stop-color="#4A3A1E" stop-opacity="0.1"/></radialGradient>
  <linearGradient id="sv" x1="0" y1="0" x2="1" y2="0"><stop offset="0" stop-color="#8E9CAC"/><stop offset="0.18" stop-color="#F2F6FA"/><stop offset="0.36" stop-color="#FFFFFF"/><stop offset="0.6" stop-color="#B4BFCC"/><stop offset="0.84" stop-color="#6E7D8E"/><stop offset="1" stop-color="#9FABB9"/></linearGradient>
  <linearGradient id="gd" x1="0" y1="0" x2="1" y2="0"><stop offset="0" stop-color="#B58A2C"/><stop offset="0.3" stop-color="#F2DE9E"/><stop offset="0.55" stop-color="#D4AF37"/><stop offset="1" stop-color="#8F6B1B"/></linearGradient>
  <filter id="soft" x="-60%" y="-60%" width="220%" height="220%"><feGaussianBlur stdDeviation="7"/></filter></defs><rect width="400" height="500" fill="url(#bg)"/><rect width="400" height="500" fill="url(#vig)"/><ellipse cx="200" cy="430" rx="130" ry="15" fill="#3A3020" opacity="0.22" filter="url(#soft)"/>
     <path d="M110 320 L120 210 C150 236 250 236 280 210 L290 320 Z" fill="url(#gd)"/>
     <path d="M110 320 L290 320 L288 352 L112 352 Z" fill="url(#gd)"/>
     <path d="M110 210 A14 14 0 1 1 138 210 A14 14 0 1 1 110 210Z" fill="url(#gd)"/>
     <path d="M186 210 A14 14 0 1 1 214 210 A14 14 0 1 1 186 210Z" fill="url(#gd)"/>
     <path d="M262 210 A14 14 0 1 1 290 210 A14 14 0 1 1 262 210Z" fill="url(#gd)"/>
     <g fill="#C0392B"><circle cx="150" cy="286" r="8"/><circle cx="250" cy="286" r="8"/></g>
     <g fill="#2C6E8E"><circle cx="200" cy="278" r="9"/></g>
     <g fill="#FBF3DD" opacity="0.9"><circle cx="130" cy="336" r="4.5"/><circle cx="170" cy="336" r="4.5"/><circle cx="200" cy="336" r="4.5"/><circle cx="230" cy="336" r="4.5"/><circle cx="270" cy="336" r="4.5"/></g>
     <g stroke="#8A6E1E" stroke-width="1.5" opacity="0.5" fill="none"><path d="M120 300 q80 -16 160 0"/></g>
     <text x="200" y="250" text-anchor="middle" font-family="'Frank Ruhl Libre','Times New Roman',serif" font-size="20" font-weight="700" fill="#8A6E1E">כתר תורה</text></svg>
