<svg xmlns="http://www.w3.org/2000/svg" viewBox="0 0 400 500"><defs>
  <linearGradient id="bg" x1="0" y1="0" x2="0" y2="1"><stop offset="0" stop-color="#FCFAF4"/><stop offset="0.72" stop-color="#F3EDE0"/><stop offset="1" stop-color="#E2D8C3"/></linearGradient>
  <radialGradient id="vig" cx="0.5" cy="0.42" r="0.8"><stop offset="0.6" stop-color="#000" stop-opacity="0"/><stop offset="1" stop-color="#4A3A1E" stop-opacity="0.1"/></radialGradient>
  <linearGradient id="sv" x1="0" y1="0" x2="1" y2="0"><stop offset="0" stop-color="#8E9CAC"/><stop offset="0.18" stop-color="#F2F6FA"/><stop offset="0.36" stop-color="#FFFFFF"/><stop offset="0.6" stop-color="#B4BFCC"/><stop offset="0.84" stop-color="#6E7D8E"/><stop offset="1" stop-color="#9FABB9"/></linearGradient>
  <linearGradient id="gd" x1="0" y1="0" x2="1" y2="0"><stop offset="0" stop-color="#B58A2C"/><stop offset="0.3" stop-color="#F2DE9E"/><stop offset="0.55" stop-color="#D4AF37"/><stop offset="1" stop-color="#8F6B1B"/></linearGradient>
  <filter id="soft" x="-60%" y="-60%" width="220%" height="220%"><feGaussianBlur stdDeviation="7"/></filter><linearGradient id="tz" x1="0" y1="0" x2="1" y2="1"><stop offset="0" stop-color="#F6C860"/><stop offset="0.5" stop-color="#E0A32E"/><stop offset="1" stop-color="#B87A18"/></linearGradient></defs><rect width="400" height="500" fill="url(#bg)"/><rect width="400" height="500" fill="url(#vig)"/><ellipse cx="200" cy="428" rx="120" ry="15" fill="#3A3020" opacity="0.22" filter="url(#soft)"/>
     <rect x="128" y="230" width="144" height="160" rx="16" fill="url(#tz)"/>
     <rect x="128" y="230" width="144" height="30" rx="14" fill="#F0BC55"/>
     <rect x="176" y="242" width="48" height="7" rx="3" fill="#7A5210"/>
     <text x="200" y="330" text-anchor="middle" font-family="'Frank Ruhl Libre','Times New Roman',serif" font-size="30" font-weight="700" fill="#FFFFFF">צדקה</text>
     <g fill="#FFFFFF" opacity="0.85"><circle cx="160" cy="360" r="4"/><circle cx="240" cy="360" r="4"/></g>
     <circle cx="200" cy="200" r="20" fill="url(#gd)"/><circle cx="200" cy="200" r="13" fill="none" stroke="#8A6E1E" stroke-width="2"/>
     <text x="200" y="208" text-anchor="middle" font-family="'Frank Ruhl Libre','Times New Roman',serif" font-size="16" font-weight="700" fill="#7A5210">₪</text></svg>
